<?xml version="1.0" encoding="UTF-8"?>
<svg version="1.1" viewBox="0 0 2048 2048" width="2400" height="2400" xmlns="http://www.w3.org/2000/svg">
<path transform="translate(0)" d="m0 0h2048v2048h-2048z" fill="#FDFDFD"/>
<path transform="translate(239,744)" d="m0 0h1570v560h-1569l-1-1z" fill="#EB1E29"/>
<path transform="translate(596,883)" d="m0 0h163l4 9 10 38 4 13v4l-107 1v41h118l3 7 8 29 7 24v4h-136v49l150 1 6 21 11 40-1 3h-236l-5-1v-282z" fill="#FDFDFD"/>
<path transform="translate(1039,883)" d="m0 0h198v63l-1 1h-123l1 41 123 1v64h-124v49l124 1v63l-2 1h-192l-5-1v-282z" fill="#FDFDFD"/>
<path transform="translate(1475,883)" d="m0 0h128l3 7 14 51v6h-79v15l-1 13h28l17 2 12 3 12 5 11 8 9 10 8 16 4 16 1 10v12l-2 17-5 17-8 16-7 11-16 16-15 10-19 9-18 6-26 5-20 2-22 1h-32l-4-1v-63l1-1 37-1 19-2 22-5 13-5 10-6 6-5 6-12 1-3v-9l-5-10-6-4-11-3-75-1-1-3 5-98 3-50z" fill="#FDFDFD"/>
<path transform="translate(408,883)" d="m0 0h74l1 21 1 198 88 1v63l-160 1-5-1-1-41v-222l1-19z" fill="#FDFDFD"/>
<path transform="translate(1261,883)" d="m0 0h74l1 21v199h88l1 1v62l-2 1-162-1-1-1v-281z" fill="#FDFDFD"/>
<path transform="translate(782,883)" d="m0 0h81l7 24 20 73 19 69 17 62 12 44 2 7v4l-22 1h-53l-6-2-8-27-20-74-39-143-10-36z" fill="#FDFDFD"/>
<path transform="translate(945,883)" d="m0 0h79l-1 8-66 242-3 1-10-38-28-102-1-9 10-35 17-62z" fill="#FDFDFD"/>
<path transform="translate(1623,883)" d="m0 0 27 1 4 2 5-3h6l1 19-1 2h-6l-2-6v-2l-6 1-2 7h-6l-1-1v-13l-1-1h-5l-1 14-2 2-5-1-2-15-4-2z" fill="#FDFDFD"/>
</svg>
