<?xml version="1.0" encoding="UTF-8"?>
<svg version="1.1" viewBox="0 0 1920 1440" width="2048" height="611" preserveAspectRatio="xMidYMid meet" xmlns="http://www.w3.org/2000/svg">
<path transform="translate(1069,557)" d="m0 0 15 1 7 3 9 6 10 9 11 12 4 5 5-2 6-5 7-8 11-11 8-6 8-3h14l10 2 9 4 9 6 8 8 7 12 4 16v10l-7 40-19 95-2 4-7 4h-54l-9-2-1-7 8-46 9-52 3-16v-11l-3-7-7-6-9-3-4 1-3 8-11 56-14 73-3 8-5 3-3 1h-57l-5-4v-12l9-49 10-58v-10l-3-8-7-6-10-3h-3l-4 12-14 75-8 43-3 12-3 6-8 2h-11l-11-1-2 1-15 1-7-2-1 1h-9l-2-4-4-2 1-10 8-61 14-110 2-8 5-4h73l4 5-1 22 8-7 14-14 11-7z" fill="#FEFEFE"/>
<path transform="translate(1286,457)" d="m0 0h75l3 2-1 16-13 74-1 9h11l44-5h12l8 4 9 10 9 16 5 13 2 9 1 16-2 21-5 19-8 20-10 20-12 19-14 19-10 13-6 5-4 1-13 1h-118l-5-3-1-2v-11l12-87 5-36 5-38 6-42 8-60 2-16 4-6z" fill="#FEFEFE"/>
<path transform="translate(338,450)" d="m0 0 64 1 4 2 1 2v8l-17 95-6 35-3 9-5 5-15 1-57-1-2-2-1-9 9-49 6-34v-4l-2 1-7 16-13 28-12 34-6 24-3 21 2 20 5 16 6 11 10 14 11 13 14 15 15 14 12 12 7 8 2 3h-94l-13-2-6-4-10-9-7-6-7-8-10-11-12-16-8-13-8-17-4-14-1-8v-19l3-21 6-25 9-26 7-16 9-17 7-14 14-24 6-8 6-3 14-1 62-1 4-6 3-14 6-5z" fill="#FEFEFE"/>
<path transform="translate(519,543)" d="m0 0h16l7 4 8 8 13 17 8 16 4 11 2 11v27l-4 20-10 30-11 25-13 24-9 13-4 5-8 4-9 1h-96l-10-5-7-11-7-15-6-17-4-20v-30l4-20 5-16 12-25 5-9 6-7 8-3 7-1 47-1-4-5-17-11-7-5v-3l36-6z" fill="#FEFEFE"/>
<path transform="translate(726,560)" d="m0 0h71l5 5v9l-18 90-3 19v20l4 14 9 17 6 8 4 2 3-12 4-29 14-109 3-25 4-7 2-2h73l5 3-1 13-30 159-3 16-5 6-2 1-41 1h-27l-3-1-43 1h-17l-12-6-8-8-7-11-6-14-3-18v-14l3-27 3-21 11-72 4-7z" fill="#FEFEFE"/>
<path transform="translate(1685,550)" d="m0 0h14l9 5 12 10 8 10 9 14 5 12 4 17v29l-9 50-8 44-3 12-5 4-5 2h-71l-3-1-29 1h-15l-12-6-11-14-8-16-4-14-1-6v-12l4-18 5-12 9-14 10-12 8-7 5-3 13-2 5 1h41l4-3-1-7-8-15-12-13-10-9-14-10 1-3 25-6z" fill="#FEFEFE"/>
<path transform="translate(631,457)" d="m0 0h75l4 2-2 18-19 108-20 115-6 34-3 16-4 7-2 1-62 1-2-4h-2l-1-7 6-42 13-99 8-58 11-82 4-9z" fill="#FEFEFE"/>
<path transform="translate(1486,560)" d="m0 0h72l4 4 1 7-6 35-14 72-13 71-4 7-5 3h-10l-11-1-2 1h-8l-4-1h-27l-3-5 2-17 13-103 7-54 1-11z" fill="#FEFEFE"/>
<path transform="translate(236,778)" d="m0 0h1472v2l-11 4-36 11-58 19-24 10-16 10-3-1-8-20-7-13-7-7-3-2-5-1-60-4-21-1h-970l-29 1-14 1h-12l-2 1-30 2-9 2-11 10-8 14-8 18-4-1-13-9-18-11-14-7-25-9-18-7-21-7-7-4z" fill="#FEFEFE"/>
<path transform="translate(1154,802)" d="m0 0h15l6 3 6 8 8 16 2 9v21l-5 19-9 19-7 11-11 12-7 3-9 1-5 3h-5l-5-1-12-3-6-4-6-7-4-10-4-20 2-18 3-10 8-18 5-8 9-5 15-1-4-6-5-6 3-3 10-3z" fill="#FEFEFE"/>
<path transform="translate(853,804)" d="m0 0h14l10 2 5 5-1 9-12 64-6 30-4 5-15 6-8 2-8-1-5-10-2-20-1-17-1-7h-1l-7 42-4 6-3 3-4 1h-9l-7-2-3-6 1-19 7-62 3-17 2-3 3-1h37l4 4 2 10 1 33 1 8 1-2 6-53 2-8z" fill="#FEFEFE"/>
<path transform="translate(1258,801)" d="m0 0h7l6 3 8 8 8 14 3 11v18l-5 22-7 16-7 12-9 11-7 5-17 5h-11l-11-2-6-4-6-7-5-15-2-11v-19l4-15 10-21 4-5 5-2 12-3h4l-3-5-5-5 1-4 7-3z" fill="#FEFEFE"/>
<path transform="translate(597,804)" d="m0 0h24l7 2 1 10-8 73-3 23-2 5-9 5-11 1-6-2-5-5-1-2-1-11-2-2-8 5-9 16-2 1h-21l-3-2v-11l8-37 11-51 4-6 2-2 18-1 8-2 6-4z" fill="#FEFEFE"/>
<path transform="translate(693,801)" d="m0 0h13l8 4 9 9 4 9v16l-3 11-11 26-6 8-5 5-7 3-10 1-9-2-4 4-3 7-3 15-5 6-3 1h-12l-8-1-3-4 1-15 7-52 3-22 3-7 7-5h15l-3-5-2-3 1-4 10-3z" fill="#FEFEFE"/>
<path transform="translate(939,805)" d="m0 0h22l9 1-1 5-12 11-8 7h-2v2l-5 5-8 9-7 11-4 9-2 11v14l1 11 3 1 4-15 2-15 4-8 7-6 2-1h17l4 3 1 3-1 14-6 31-4 10-6 5-17 1h-17l-15-1-6-3-6-7-5-15-1-5v-22l3-13 5-13 9-16 11-13 11-8 6-2z" fill="#FEFEFE"/>
<path transform="translate(1434,803)" d="m0 0 14 1 2 2 1 9-3 16-3 9-8 7-4 1h-14l-4-3-1-14-1-1-2 9v8l6 9 8 11 5 10 1 5v14l-4 10-9 10-12 6-5 1h-31l-3-3 1-7 13-12 6-7 2-4v-6l-5-8-8-10-4-8-2-8v-9l4-13 6-9 8-5 28-2 9-8z" fill="#FEFEFE"/>
<path transform="translate(482,807)" d="m0 0h49l10 2 4 3 1 3v12l-4 6-6 3-7 1-2 6-4 16-10 54-6 9-8 1-14-1-5-2-1-3v-11l8-58 4-9v-2l-16-1-4-4v-5l2-6-1-5 5-8z" fill="#FEFEFE"/>
<path transform="translate(1038,807)" d="m0 0h48l12 2 2 2v18l-5 5-10 5h-2l-3 9-11 58-3 11-5 6-3 1h-11l-8-1-5-7 1-13 7-48 3-11 1-7-16-1-2-1-1-7 1-12 4-6 2-2z" fill="#FEFEFE"/>
<path transform="translate(1320,807)" d="m0 0h19l6 2 1 2v11l-10 52-2 12v9l2 3 18 2 2 5v10l-6 8-25 1h-16l-10-2-3-4v-9l10-70 4-26 2-4z" fill="#FEFEFE"/>
<path transform="translate(1523,475)" d="m0 0h14l11 3 10 5 6 5 5 7 3 10v8l-3 10-9 10-9 6-11 3h-20l-13-5-10-9-6-9-1-3v-14l4-10 9-9 10-5z" fill="#FEFEFE"/>
<path transform="translate(747,809)" d="m0 0h16l14 1v15l-8 44-8 42-4 8-6 5-7 1-13-3-4-7 3-23 6-44 4-29 4-9z" fill="#FEFEFE"/>
<path transform="translate(1347,575)" d="m0 0 5 2 6 8 8 16 3 11v23l-3 16-7 19-12 23-13 21-11 15-3 3h-4l5-25 13-74 9-50 3-7z" fill="#010102"/>
<path transform="translate(481,588)" d="m0 0 3 1 4 8 10 29-1 17-5 27-7 25-10 26-6 14h-4l-2-2-3-12-3-21v-28l3-22 6-24 11-31z" fill="#010102"/>
<path transform="translate(1667,639)" d="m0 0 2 1-1 12-5 36-6 41-2 13-4-1-4-10-8-27 1-14 3-13 6-15 10-16 5-6z" fill="#010102"/>
<path transform="translate(1244,836)" d="m0 0 4 2 4 14v8l-11 36-4 6h-2l-2-13 2-18 8-34z" fill="#010102"/>
<path transform="translate(1147,836)" d="m0 0h2l1 2 2 18v8l-5 21-6 18-4-2-2-5v-16l6-27 4-15z" fill="#010102"/>
<path transform="translate(683,828)" d="m0 0 4 1 4 5 1 8-7 15-8 16-4 2 1-5 5-24z" fill="#010102"/>
<path transform="translate(587,840)" d="m0 0h2l1 2v16l-2 13-4 6-4-1 1-11 5-19z" fill="#010102"/>
</svg>
