<?xml version="1.0" encoding="UTF-8"?>
<svg version="1.1" viewBox="0 0 2048 2048" width="512" height="512" xmlns="http://www.w3.org/2000/svg">
<path transform="translate(0)" d="m0 0h2048v2048h-2048z"/>
<path transform="translate(965,817)" d="m0 0h769l-1 10-13 54-16 64-15 59-18 71-14 54-6 18-2 1-232 1-519 2-14 11-10 9-14 11-11 9-13 9h-3l3-12 14-50 21-79 11-42 14-53 11-40 9-34 18-67 2-5z" fill="#235FEB"/>
<path transform="translate(1800,766)" d="m0 0 2 1-9 38-16 64-13 49-11 42-18 73-14 56-18 68-9 36-1 2-3 1h-807l-1-4 6-9 355-1h437l2-11 17-66 23-91 11-42 12-46 14-55 14-54 8-36-1461-1-1 10-6 27-11 44-17 63-15 57-18 70-16 64-15 59-3 8h233l273-1 15-5 15-8 7-6 7-14 5-21 6-26 1-2h-50l-18-4-12-6-8-9-5-11v-25l10-44 17-69 2-3 8-1h36l1 1-1 11-12 50-11 42-1 5v11l4 8 4 3h45l5-15 15-58 11-43 4-12 5-3 41-1-5 26-20 79-17 64-12 47-7 19-8 14-6 7-17 9-13 4-11 1-204 1-282 1h-65l-5-2 1-7 19-74 16-61 22-82 15-57 13-51 17-66 7-27 2-2 221-1 921-1z" fill="#FEFEFE"/>
<path transform="translate(350,868)" d="m0 0h123l17 2 16 6 12 8 9 10 8 16 2 10 1 11v18l-4 29-7 26-10 24-10 18-9 10-7 8-9 8-13 9-16 8-15 5-18 4-9 1h-119l1-8 18-70 8-30 19-81 8-35 2-6z" fill="#FEFEFE"/>
<path transform="translate(1273,869)" d="m0 0h43l-1 6-15 29-11 19-6 11-16 29-15 27-14 24-14 25-14 24-12 21-8 13-2 2h-55l-1-10-1-66-2-95v-5l-4 3-11 23-9 17-7 14-10 19-10 20-12 22-14 27-12 22-5 8-3 1h-52l-1-2-10-160-4-56v-11h48l1 1 3 59 2 52 1 62 4-4 8-16 13-24 15-28 12-22 23-46 10-19 8-14 2-1h53l1 1 2 25 4 95 1 52 3-3 4-8 11-18 6-11 8-15 8-16 12-22 6-12 10-18 18-35 7-12z"/>
<path transform="translate(1319,929)" d="m0 0h103l10 3 10 8 8 11 3 8 1 6-1 17-7 33-15 65-5 16-2 2-89 1h-22l-14-2-11-4-9-7-4-5-4-9-1-5v-19l2-9 6-13 7-10 7-7 11-7 13-5 5-1 83-2 4-4 2-4v-9l-4-7v-2l-12-6-6-1h-71l-5-1v-7l4-17z"/>
<path transform="translate(387,908)" d="m0 0h73l8 3 9 7 6 7 3 11v21l-2 18-5 20-8 22-7 11-7 9-11 9-11 6-10 4-17 3-10 1h-48l1-8 12-46 18-73 5-19z"/>
<path transform="translate(572,927)" d="m0 0h81l16 4 8 6 5 8 1 3v19l-6 25-3 7-3 1h-39l1-13 2-10v-9l-3-3h-23l-16 64-8 31-10 36-3 3h-44l1-7 20-79 15-63 6-21z" fill="#FEFEFE"/>
<path transform="translate(1597,869)" d="m0 0h39l4 1-1 11-8 34-13 54-13 53-11 47-8 27-2 3h-40l-3-1 4-18 13-52 17-73 18-74 3-11z"/>
<path transform="translate(1514,869)" d="m0 0h33l10 1-1 11-9 40-10 41-7 31-22 94-5 12h-39l-3-1 2-14 14-58 10-43 15-65 11-48z"/>
<path transform="translate(1131,1245)" d="m0 0h51l5 3 1 2-1 16-4 18-6 12-6 5-6 1h-45l-5-2-3-4-1-8 3-15 5-17 6-9z" fill="#FEFEFE"/>
<path transform="translate(826,1245)" d="m0 0h47l7 5v13l-5 23-5 10-6 5-5 1h-46l-6-3-3-3v-9l5-21 4-12 4-6z" fill="#FEFEFE"/>
<path transform="translate(714,1245)" d="m0 0h50l6 4 1 2-1 14-4 17-4 10-4 6-5 3-5 1h-46l-5-3-2-5 1-13 6-24 7-10z" fill="#FEFEFE"/>
<path transform="translate(1022,1245)" d="m0 0h50l6 4 1 2v9l-3 6-2 2-1 17-4 9-7 6-10 2h-43l-1-1v-7l10-40 3-8z" fill="#FEFEFE"/>
<path transform="translate(1397,1025)" d="m0 0 2 2-5 30-3 9-2 1h-58l-8-3-5-4-4-7v-8l4-9 7-6 9-4z" fill="#235FEB"/>
<path transform="translate(1286,1244)" d="m0 0h5v3l-10 9-8 7-9 8 2 5 11 18 3 5v2l-3 1h-12l-7-6-8-11-6 1-10 9-11 7h-12l2-5 13-13 11-9 2-4-13-23v-3h17l7 9 3 5 5-1 18-13z" fill="#FEFEFE"/>
<path transform="translate(926,1245)" d="m0 0h15l1 2-6 28-3 13 25 1 11 1 1 2-3 9-1 1h-53l1-11 11-45z" fill="#FEFEFE"/>
<path transform="translate(626,1245)" d="m0 0h47l-1 10-2 3-22 1-6 27-3 12-2 2h-10l-6-1 3-11 8-30h-19l-1-1v-7l2-4z" fill="#FEFEFE"/>
<path transform="translate(1135,1256)" d="m0 0h36l1 4-5 21-3 8-2 1h-34l-1-2 7-31z"/>
<path transform="translate(828,1256)" d="m0 0h36v7l-5 20-3 6-1 1h-35l1-9 6-24z"/>
<path transform="translate(719,1256)" d="m0 0h36l1 2-7 26-2 5-3 1h-32l-1-2 5-25z"/>
<path transform="translate(1028,1277)" d="m0 0h30l-1 10-3 3h-26l-1-1v-8z"/>
<path transform="translate(1034,1256)" d="m0 0h29l1 2-4 8-1 1h-26z"/>
</svg>
