<?xml version="1.0" encoding="UTF-8"?>
<svg version="1.1" viewBox="0 0 2048 1070" width="4096" height="2140" xmlns="http://www.w3.org/2000/svg">
<path transform="translate(1131,376)" d="m0 0h436l1 3-22 89-19 74-20 79-3 9-1 1-578 1-14 12-13 11-10 8-11 8h-2l1-5 10-35 15-57 24-91 16-59 12-45 2-2zm269 40-2 1-16 70-9 39-14 59-1 8h32l3-7 19-81 16-69 3-12v-7l-16-1zm62 0-6 24-16 67-13 55-7 27v4h33l6-21 15-63 17-70 4-17v-5l-10-1zm-249 0-6 9-16 31-12 22-17 32-12 22-9 16v2h-3v-19l-3-86-2-28h-42l-8 14-23 45-18 34-14 26-7 14-3 1v-27l-2-59-2-44-1-4h-37l2 32 3 40 3 55 2 24 1 21 1 4h41l6-9 14-27 12-22 12-24 10-19 15-30 1-3 4-1v33l2 101 1 1h42l8-13 44-77 14-25 13-23 15-28 5-10-1-1zm36 46-3 7-3 14 1 4h61l7 3 5 5 2 5v7l-3 5-6 1-59 1-13 4-11 7-7 7-5 9-4 11v17l4 11 7 7 8 4 13 2 87-1 5-16 14-61 3-16v-9l-2-9-5-8-8-7-7-3-5-1z" fill="#2563eb"/>
<path transform="translate(1607,338)" d="m0 0h12l-1 9-14 56-23 88-19 75-23 88-3 12-2 2h-622l2-6 4-4 608-1 11-42 21-82 19-74 23-90 5-21h-1124l-4 18-14 54-15 57-20 78-11 43-15 58-1 2 388-1 12-3 13-7 7-7 5-11 5-22 3-14h-36l-16-3-10-5-6-7-4-9v-16l7-31 15-59 1-1 9-1h24l1 5-9 38-10 38-1 5v7l4 6 5 2h33l3-7 11-42 12-47 2-4 6-1h27l-1 11-13 52-13 50-8 30-6 24-6 16-8 11-9 6-12 5-11 2-425 1-4-2 8-29 20-77 19-72 17-65 21-81 2-4z" fill="#ffffff"/>
<path transform="translate(507,415)" d="m0 0h86l16 2 12 4 11 7 8 9 5 11 2 11 1 14-3 22-6 24-8 20-8 14-12 14-14 11-16 8-16 5-14 2h-92l1-8 19-73 12-48 10-45 1-3zm25 31-7 30-13 50-9 36 3 1h34l18-2 11-4 10-6 8-7 9-14 6-17 4-16 2-15v-12l-2-9-6-8-8-5-6-2z" fill="#ffffff"/>
<path transform="translate(676,461)" d="m0 0h58l11 2 8 4 4 5 2 6v12l-5 23-3 4h-31l1-8 2-10v-6l-4-4h-17l-16 64-10 37-2 3h-34l2-10 10-38 16-64 4-17 1-2z" fill="#ffffff"/>
<path transform="translate(1263,537)" d="m0 0h46l-1 11-3 17-2 3h-46l-7-3-4-4-1-3v-8l5-8 8-4z" fill="#2563eb"/>
<path transform="translate(1021,705)" d="m0 0h36l5 3 2 3v6l-4 7h-2l1 3v11l-3 5-6 5-6 1h-35l1-8 8-30 2-5zm9 9-1 2v6h19l3-3 1-5zm-5 16-1 3v7h21l3-5-1-5z" fill="#ffffff"/>
<path transform="translate(1105,705)" d="m0 0h37l5 3 1 6-4 20-4 10-5 4-3 1h-37l-5-3-1-2v-9l6-21 4-6zm2 9-4 15-2 11h27l3-5 4-16v-5z" fill="#ffffff"/>
<path transform="translate(786,705)" d="m0 0h35l6 5-1 11-5 19-4 6-6 3h-37l-5-4v-10l5-20 4-6 4-3zm1 9-3 9-3 16 1 1h25l3-5 5-18v-3z" fill="#ffffff"/>
<path transform="translate(871,705)" d="m0 0h33l5 3 2 2v8l-5 21-4 6-3 3-4 1h-36l-5-3-2-3 2-12 5-17 4-6zm0 9-3 9-3 13v4h27l3-6 4-17-1-3z" fill="#ffffff"/>
<path transform="translate(1178,705)" d="m0 0h12l7 10 1 2 5-2 13-10h12l-5 5-12 11-6 5 13 20-1 3h-11l-7-8-4-6-5 2-7 7-8 5h-10l2-4 10-9 11-9-8-15-3-6z" fill="#ffffff"/>
<path transform="translate(731,705)" d="m0 0h20l1 4-3 6h-17l-2 11-5 21-1 1h-12l2-9 7-24h-16l-1-3 3-6z" fill="#ffffff"/>
<path transform="translate(947,705)" d="m0 0h11l-1 9-6 25 28 1 1 2-2 6-1 1h-41l2-11 8-31z" fill="#ffffff"/>
</svg>
