<?xml version="1.0" encoding="UTF-8"?>
<svg version="1.1" viewBox="0 0 2048 613" width="1896" height="568" xmlns="http://www.w3.org/2000/svg">
<path transform="translate(0)" d="m0 0h2048v613h-2048z" fill="#FDFDFD"/>
<path transform="translate(89,203)" d="m0 0h150l22 2 17 4 17 8 10 9 5 8 1 4v43l-2 10-6 10-9 8-15 8-15 4-15 2-107 1h-29v59l-2 4-5 3-6 1h-8l-8-2-4-4-1-7v-30l1-142 2-2z" fill="#171617"/>
<path transform="translate(1870,203)" d="m0 0 37 1 22 3 17 5 11 6 8 7 5 8 2 6 1 13v128l-2 7-4 3-4 1h-15l-6-3-3-5-1-129-3-8-8-7-10-4-16-2-15-1h-24l-25 2-12 3-10 6-6 9-1 128-2 6-5 4-4 1h-13l-9-3-3-5-1-130-3-7-4-5-10-5-10-2-10-1h-88l-5 1-1 150-4 5-7 2h-12l-7-2-3-3-1-173 6-9h123l20 3 15 5 11 6 7 8 8-6 10-6 12-5 20-4 10-1z" fill="#171617"/>
<path transform="translate(681,201)" d="m0 0h15l6 3 9 10 24 36 33 48 29 43 22 33 2 4-1 5-5 6-12 6-7-1-6-4-15-22-12-17-6-9h-136l-5 5-16 23-13 17-8 7-8-1-10-5-6-6 1-6 18-27 15-22 29-43 29-44 19-28 7-7z" fill="#171617"/>
<path transform="translate(1093,204)" d="m0 0h154l20 2 17 4 16 8 8 7 7 12 1 4v140l-3 7-2 2-4 1h-15l-8-3-2-4-1-132-5-8-6-5-9-4-16-2h-124v141l-1 10-4 5-5 2h-14l-7-2-3-4-1-6v-165l3-7z" fill="#171617"/>
<path transform="translate(1356,203)" d="m0 0h15l6 3 3 5v90l1 41 3 6 8 7 10 4 11 2 14 1h114v-149l1-6 6-3 4-1h15l5 2 3 4 1 136v37l-4 6-2 2-4 1h-143l-21-2-21-4-13-5-11-8-6-8-4-8-1-5v-142l5-4z" fill="#171617"/>
<path transform="translate(800,203)" d="m0 0h191l5 2 3 6v11l-3 5-5 4-61 1-18 1-1 150-4 6-2 1h-20l-5-2-2-4v-152h-77l-5-2-5-5-1-3v-8l3-8 2-2z" fill="#171617"/>
<path transform="translate(343,203)" d="m0 0h19l5 5 1 4 1 132 3 7 10 6 12 3 8 1 137 1 4 4 3 10-1 6-5 8-4 1h-109l-30-1-21-3-15-5-11-6-5-4-7-10-3-7-1-6v-142l5-3z" fill="#171617"/>
<path transform="translate(132,231)" d="m0 0h102l22 1 12 3 8 6 2 4v31l-4 8-8 7-9 3-15 2h-127l-2-1v-63z" fill="#FDFDFD"/>
<path transform="translate(1041,202)" d="m0 0h6l6 4 3 5v170l-3 6-5 3-4 1h-10l-9-3-3-3v-179l9-3z" fill="#171617"/>
<path transform="translate(686,239)" d="m0 0 4 1 14 20 14 22 16 23 4 6v2h-101l1-4 13-18 15-22 14-21z" fill="#FDFDFD"/>
<path transform="translate(1852,436)" d="m0 0 10 1 6 5 5 8 2 8v26l-3 10-6 10-5 4-7 1-7-3-8-9-3-7-1-5v-24l4-13 9-10z" fill="#FDFDFD"/>
<path transform="translate(1791,436)" d="m0 0h8l6 4 6 7 3 8 1 6v22l-4 13-6 8-5 4-7 1-6-3-8-9-3-9-1-5v-24l4-11 6-8z" fill="#FDFDFD"/>
<path transform="translate(1252,438)" d="m0 0h12l11 2 7 6 5 11 1 7v17l-4 13-7 8-10 4-12 1-3-2z" fill="#FDFDFD"/>
<path transform="translate(1411,432)" d="m0 0 8 1 2 2 4 37 3 28 1 6 6-22 5-21 2-9 4-1 3 9 6 28 4 16 6-53 3-18 4-2 1 5-7 50-3 21-1 2h-8l-7-37-2-10-7 27-4 18-2 3-7-1-5-37-4-37v-2l-4 1-2 5-12 22-8 13-1 35-3 1-3-1-1-32-5-12-13-26-4-6v-2l7 1 5 8 9 17 4 9 1 6 6-11 12-21z" fill="#171617"/>
<path transform="translate(1306,434)" d="m0 0h26l8 4 4 6 2 9-2 9-8 9-6 3 5 9 14 22 4 5v2l-6-1-5-5-10-16-7-11-10-4v-3h10l6-4 7-8 1-2v-9l-4-6-8-4-13-1-1 74-7-1z" fill="#171617"/>
<path transform="translate(1246,434)" d="m0 0h24l9 2 5 4 6 9 3 10v26l-4 11-7 8-5 4-6 2-7 1h-9l-8-1zm6 4v67l3 2 12-1 10-4 7-8 4-13v-17l-2-10-5-9-6-5-11-2z" fill="#171617"/>
<path transform="translate(1789,432)" d="m0 0h11l8 4 7 8 4 9 1 7v27l-4 11-4 6-8 7-5 2h-8l-10-5-6-7-4-9-2-12v-15l2-11 4-9 4-6 8-6zm2 4-8 6-6 10-2 7v24l3 11 4 7 8 7 8 1 6-4 6-7 4-10 1-5v-22l-3-12-6-8-5-4-2-1z" fill="#171617"/>
<path transform="translate(1850,432)" d="m0 0h10l10 5 6 9 4 10 1 8v16l-3 14-5 9-4 5-9 5h-10l-10-6-7-10-3-8-1-16 1-15 3-10 6-9 6-5zm2 4-5 3-8 9-4 13v24l3 10 6 8 6 5 8 1 7-4 6-9 3-7 1-5v-26l-3-10-7-9-7-3z" fill="#171617"/>
<path transform="translate(1503,432)" d="m0 0 3 1 10 26 10 34 6 18-1 2-6-1-6-20-12-39-4-11-9 28-3 13 24 1 2 4h-27l-1-2-1 5-6 19-1 1h-5l3-10 9-29 6-20 7-19z" fill="#171617"/>
<path transform="translate(1968,431)" d="m0 0 11 2 7 2 4 1v3 2l-6-1-16-4-9 6-4 6 1 7 4 5 26 16 6 7 1 4v9l-3 6-4 5-6 4-7 2h-9l-15-4-1-5 4-1 14 5h7l8-4 5-8v-9l-6-7-22-13-7-8-2-9 4-10 8-7z" fill="#171617"/>
<path transform="translate(1708,434)" d="m0 0h58l-2 5-24 1v72h-6v-73h-24l-2-1z" fill="#171617"/>
<path transform="translate(1900,433)" d="m0 0 2 2v71h34l1 4-1 1h-41l-1-2v-75z" fill="#171617"/>
<path transform="translate(1503,440)" d="m0 0 2 4 10 31 2 11-2-1-25-1 4-17z" fill="#FDFDFD"/>
<path transform="translate(1602,434)" d="m0 0h7l-1 73 11-1h24l1 4-14 1h-28z" fill="#171617"/>
<path transform="translate(1544,435)" d="m0 0h6l1 2v69h14l20-1v5l-9 1h-31l-1-14-1-61z" fill="#171617"/>
</svg>
