<?xml version="1.0" encoding="UTF-8"?>
<svg xmlns="http://www.w3.org/2000/svg" width="79.4" height="30" viewBox="0 0 480 182" fill="none">
  <path d="M11.0164 22.8711V159.27C11.0164 165.798 16.3839 171.141 22.9443 171.141H104.83C166.736 171.141 193.574 136.655 193.574 90.8925C193.574 45.3667 166.736 11 104.83 11H22.9443C16.3839 11 11.0164 16.342 11.0164 22.8711Z" fill="white"></path>
  <path d="M65.8253 44.4757V145.261H109.899C149.917 145.261 167.273 122.765 167.273 90.9507C167.273 60.5016 149.917 36.8782 109.899 36.8782H73.4592C69.2247 36.8782 65.8253 40.3208 65.8253 44.4757Z" fill="#CC0066"></path>
  <path fill-rule="evenodd" clip-rule="evenodd" d="M33.6188 160.279H104.829C154.867 160.279 182.479 135.646 182.479 90.9514C182.479 65.1914 172.4 21.9214 104.829 21.9214H33.6188C27.297 21.9214 22.168 27.0259 22.168 33.3176V148.883C22.168 155.175 27.297 160.279 33.6188 160.279ZM25.9821 33.3177C25.9821 29.1034 29.3816 25.7202 33.616 25.7202H104.826C132.379 25.7202 178.66 34.208 178.66 90.9514C178.66 133.213 152.419 156.48 104.826 156.48H33.616C29.3816 156.48 25.9821 153.096 25.9821 148.883V33.3177Z" fill="#232323"></path>
  <path fill-rule="evenodd" clip-rule="evenodd" d="M87.5134 76.3046C86.1718 75.825 84.7719 75.5851 83.2548 75.5851V75.5251H73.1625V99.8693H83.3721C85.1803 99.8693 86.7557 99.5096 88.0973 98.91C89.439 98.2506 90.5477 97.411 91.4227 96.3314C92.2977 95.2526 92.939 93.933 93.4057 92.434C93.814 90.935 94.0477 89.3163 94.0477 87.5175C94.0477 85.4787 93.7558 83.7397 93.231 82.2407C92.6479 80.8014 91.8893 79.5424 90.9561 78.5233C89.9638 77.5638 88.8559 76.7843 87.5134 76.3046ZM85.119 95.0732C84.3604 95.3132 83.6601 95.4328 82.9023 95.4328V95.4934H78.2933V80.1428H82.0273C83.3107 80.1428 84.3604 80.323 85.2354 80.6826C86.1104 81.0422 86.8108 81.6418 87.3356 82.302C87.8605 82.9614 88.2689 83.8609 88.5026 84.8201C88.7363 85.7793 88.8527 86.9187 88.8527 88.1179C88.8527 89.4973 88.6773 90.5761 88.3279 91.5353C87.9777 92.4953 87.5111 93.2146 86.9855 93.8142C86.4606 94.4138 85.8193 94.8332 85.119 95.0732Z" fill="white"></path>
  <path d="M115.108 75.5851V80.0822H102.623V85.2985H114.116V89.4359H102.623V95.3722H115.4V99.8693H97.4313V75.5251H115.108V75.5851Z" fill="white"></path>
  <path fill-rule="evenodd" clip-rule="evenodd" d="M141.826 99.9283L132.958 75.5845H127.533L118.607 99.9283H123.857L125.725 94.5319H134.592L136.4 99.9283H141.826ZM130.275 81.5813L133.25 90.5148H127.125L130.217 81.5813H130.275Z" fill="white"></path>
  <path d="M150.286 75.5845V95.4313H161.837V99.9283H145.094V75.5845H150.286Z" fill="white"></path>
  <path d="M45.3467 100.287C51.6667 100.287 56.79 95.1623 56.79 88.8402C56.79 82.5181 51.6667 77.3931 45.3467 77.3931C39.0267 77.3931 33.9033 82.5181 33.9033 88.8402C33.9033 95.1623 39.0267 100.287 45.3467 100.287Z" fill="#232323"></path>
  <path d="M52.1562 146.076C43.2997 146.076 36.1919 138.425 36.1919 129.026V115.712C36.1919 111.012 39.7458 107.156 44.2022 107.156C48.6023 107.156 52.2126 110.952 52.2126 115.712V146.076H52.1562Z" fill="#232323"></path>
  <path d="M215.607 39V143" stroke="white" stroke-width="4" stroke-linecap="round"></path>
  <path d="M407.535 90.6198C407.535 77.2454 417.166 65.0493 433.798 65.0493C450.5 65.0493 460.131 77.2454 460.131 90.6198C460.131 103.994 450.5 116.19 433.798 116.19C417.169 116.193 407.535 103.994 407.535 90.6198ZM445.512 90.6198C445.512 84.1737 441.215 78.2158 433.801 78.2158C426.454 78.2158 422.09 84.1766 422.09 90.6198C422.09 97.0658 426.457 103.024 433.801 103.024C441.215 103.024 445.512 97.0658 445.512 90.6198Z" fill="white"></path>
  <path d="M397.309 100.115C402.853 96.9962 406.178 91.0382 406.178 84.4536C406.178 74.6834 399.038 66.366 387.951 66.366H364.668V114.876H379.082V102.472H381.785L390.031 114.876H407.009L397.309 100.115ZM385.043 91.3126H379.082V77.5917H385.112C388.994 77.5917 391.489 80.7107 391.489 84.4536C391.489 88.1936 388.925 91.3126 385.043 91.3126Z" fill="white"></path>
  <path d="M298.868 66.3142L290.221 95.2261L281.782 66.3142H270.302L261.794 95.2261L253.217 66.3142H238L255.429 114.732H267.949L276.041 88.3786L284.067 114.732H296.655L314.085 66.3142H298.868Z" fill="white"></path>
  <path d="M335.895 102.905C335.884 102.905 335.872 102.905 335.861 102.905C330.469 102.905 326.688 99.6879 325.065 95.4281H361.515H361.697C361.991 93.8253 362.144 92.1849 362.144 90.5243C362.144 77.1846 352.542 65.0203 335.895 65.0029V78.1463C341.319 78.1607 345.062 81.3722 346.668 85.6233H310.088C309.796 87.2262 309.646 88.8666 309.646 90.5272C309.646 103.876 319.26 116.051 335.861 116.051C335.872 116.051 335.884 116.051 335.895 116.051V102.905Z" fill="white"></path>
  <path d="M335.861 116.046C336.424 116.046 336.978 116.028 337.527 116.002C340.9 115.832 343.961 115.153 346.691 114.059C349.42 112.964 351.817 111.459 353.856 109.64C355.895 107.821 357.578 105.689 358.884 103.341C360.071 101.207 360.937 98.8966 361.48 96.4851H346.217C345.905 97.1291 345.541 97.7443 345.125 98.319C344.556 99.1045 343.889 99.8179 343.133 100.433C342.376 101.048 341.527 101.568 340.591 101.969C339.655 102.371 338.636 102.654 337.533 102.795C336.996 102.865 336.441 102.905 335.866 102.905C332.433 102.905 329.651 101.597 327.667 99.5493L317.744 109.472C322.154 113.504 328.277 116.046 335.861 116.046Z" fill="url(#paint0_linear_2815_10708)"></path>
  <path d="M335.86 65C321.781 65 312.727 73.7564 310.301 84.5634H325.521C327.341 80.8407 330.925 78.1433 335.86 78.1433C339.794 78.1433 342.846 79.8242 344.842 82.3656L354.855 72.3529C350.384 67.8707 343.952 65 335.86 65Z" fill="url(#paint1_linear_2815_10708)"></path>
  <defs>
    <linearGradient id="paint0_linear_2815_10708" x1="353.798" y1="87.5063" x2="331.339" y2="115.329" gradientUnits="userSpaceOnUse">
      <stop offset="0.0243" stop-color="white" stop-opacity="0"></stop>
      <stop offset="0.676" stop-color="white"></stop>
    </linearGradient>
    <linearGradient id="paint1_linear_2815_10708" x1="314.501" y1="93.7404" x2="337.579" y2="70.6619" gradientUnits="userSpaceOnUse">
      <stop offset="0.0243" stop-color="white" stop-opacity="0"></stop>
      <stop offset="0.676" stop-color="white"></stop>
    </linearGradient>
  </defs>
</svg>
