<svg xmlns="http://www.w3.org/2000/svg" width="197" height="22" viewBox="0 0 268 30" fill="none">
    <g clip-path="url(#clip0_201_261)">
        <g clip-path="url(#clip1_201_261)">
            <path d="M7.87305 6.61385C8.59546 6.61385 9.26889 6.76063 9.89947 7.04195C10.5362 7.32328 11.0933 7.70856 11.5647 8.19782C12.0361 8.68096 12.4095 9.25584 12.685 9.91633C12.9605 10.5707 13.0952 11.2801 13.0952 12.0263C13.0952 12.7724 12.9544 13.494 12.685 14.1545C12.4095 14.8089 12.0361 15.3899 11.5647 15.8853C11.0933 16.3806 10.5362 16.772 9.89947 17.0534C9.26889 17.3347 8.58934 17.4753 7.87305 17.4753H3.88143V24.8264H0V6.61385H7.87305ZM7.35879 13.9344C7.85468 13.9344 8.28935 13.7509 8.65668 13.3901C9.02401 13.0231 9.21379 12.5705 9.21379 12.0324C9.21379 11.4942 9.03013 11.0844 8.65668 10.7114C8.28323 10.3444 7.84856 10.1548 7.35879 10.1548H3.88755V13.9282H7.35879V13.9344Z"
                  fill="#666666"></path>
        </g>
        <g clip-path="url(#clip2_201_261)">
            <path d="M27.311 12.0957V24.8347H24.2499L23.8948 23.477C23.399 24.1436 22.799 24.584 22.1072 24.8041C21.4093 25.0243 20.6869 25.1405 19.9338 25.1405C19.0216 25.1405 18.1829 24.9631 17.4176 24.6146C16.6585 24.266 15.9973 23.7889 15.428 23.1835C14.8586 22.5719 14.4178 21.8625 14.0995 21.0552C13.7872 20.2418 13.6281 19.3734 13.6281 18.4438C13.6281 17.5142 13.7811 16.6519 14.0995 15.8324C14.4178 15.019 14.8586 14.3096 15.428 13.7041C15.9973 13.0926 16.6585 12.6094 17.4176 12.2608C18.1829 11.9122 19.0216 11.7349 19.9338 11.7349C20.7542 11.7349 21.5072 11.8633 22.1929 12.1263C22.8786 12.3831 23.4479 12.7929 23.8948 13.3494L24.2499 12.0957H27.311ZM23.7602 18.4866C23.7602 17.82 23.6683 17.2574 23.4908 16.8048C23.3132 16.3522 23.0745 15.9853 22.7745 15.704C22.4745 15.4227 22.1194 15.2147 21.7154 15.0802C21.3113 14.9517 20.8828 14.8906 20.4236 14.8906C19.9644 14.8906 19.5237 14.9884 19.1257 15.178C18.7217 15.3615 18.3666 15.6122 18.0543 15.9303C17.7482 16.2422 17.5095 16.6213 17.3381 17.0555C17.1666 17.4898 17.0809 17.9484 17.0809 18.4316C17.0809 18.9147 17.1666 19.3917 17.3381 19.8198C17.5095 20.2479 17.7482 20.621 18.0543 20.939C18.3666 21.2509 18.7217 21.5078 19.1257 21.6912C19.5237 21.8808 19.9583 21.9787 20.4236 21.9787C21.348 21.9787 22.1317 21.6912 22.7684 21.1164C23.4112 20.5476 23.7418 19.6608 23.7602 18.4805V18.4866Z"
                  fill="#666666"></path>
        </g>
        <g clip-path="url(#clip3_201_261)">
            <path d="M38.8606 12.1624H42.742L34.6976 29.9835H30.8161L33.9813 22.9688L28.5754 12.1624H32.5365L35.8546 18.8162L38.8606 12.1624Z"
                  fill="#666666"></path>
        </g>
        <g clip-path="url(#clip4_201_261)">
            <path d="M57.8488 12.0874C58.3079 12.0874 58.7977 12.1669 59.3303 12.3198C59.863 12.4727 60.3588 12.7479 60.8119 13.1393C61.2649 13.5368 61.6384 14.0811 61.9322 14.7661C62.2261 15.451 62.373 16.3195 62.373 17.3775V24.8264H58.8222V18.0258C58.8222 17.512 58.761 17.0778 58.6508 16.717C58.5406 16.3562 58.3875 16.0626 58.2039 15.8363C58.0202 15.6162 57.7998 15.4572 57.5549 15.3654C57.3039 15.2737 57.0529 15.2248 56.8019 15.2248C56.5509 15.2248 56.3182 15.2676 56.0734 15.3593C55.8346 15.4449 55.6203 15.5856 55.4305 15.7874C55.2408 15.9953 55.0877 16.2767 54.9836 16.6375C54.8734 16.9983 54.8183 17.4448 54.8183 17.9952V24.8264H51.2675V18.0258C51.2675 16.98 51.0838 16.2583 50.7226 15.8486C50.3614 15.4327 49.841 15.2248 49.1554 15.2248C48.6595 15.2248 48.2126 15.4572 47.8146 15.922C47.4228 16.3806 47.233 17.1023 47.233 18.0747V24.8264H43.6822V12.0874H46.7126L47.2269 13.2616C47.6126 12.8886 48.0718 12.595 48.5921 12.3932C49.1125 12.1914 49.6757 12.0874 50.2757 12.0874C50.5879 12.0874 50.9124 12.118 51.2491 12.1853C51.592 12.2403 51.9287 12.3504 52.2532 12.5033C52.5838 12.6562 52.896 12.858 53.2021 13.1026C53.5021 13.3534 53.7714 13.6653 54.0041 14.0383C54.2061 13.7142 54.4571 13.4267 54.751 13.176C55.0448 12.9314 55.3571 12.7234 55.6999 12.5644C56.0428 12.3993 56.3978 12.277 56.7713 12.2036C57.1386 12.1302 57.4998 12.0874 57.8427 12.0874H57.8488Z"
                  fill="#666666"></path>
        </g>
        <g clip-path="url(#clip5_201_261)">
            <path d="M70.4198 11.7349C71.3749 11.7349 72.2442 11.9306 73.034 12.3159C73.8237 12.6951 74.5033 13.2027 75.0726 13.8265C75.642 14.4503 76.0767 15.1719 76.3828 15.9853C76.695 16.8048 76.8542 17.6365 76.8542 18.4866C76.8542 19.0003 76.7807 19.5508 76.646 20.1318H67.5302C67.873 20.7127 68.3628 21.2081 68.9934 21.6118C69.6301 22.0154 70.3157 22.2111 71.0626 22.2111C71.8095 22.2111 72.4401 22.1499 72.9972 22.0276C73.5543 21.9053 74.087 21.7524 74.5829 21.5689L75.7706 23.7461C75.1339 24.1926 74.4053 24.5351 73.5911 24.7797C72.783 25.0121 71.9136 25.1344 70.9892 25.1344C69.9729 25.1344 69.0301 24.957 68.1608 24.6084C67.2853 24.2599 66.52 23.7828 65.8772 23.1835C65.2283 22.5842 64.7079 21.8747 64.3283 21.0552C63.9487 20.2357 63.7651 19.3612 63.7651 18.4377C63.7651 17.5142 63.9365 16.6703 64.2793 15.8569C64.6222 15.0435 65.0997 14.3341 65.7058 13.7286C66.318 13.117 67.0282 12.6339 67.8302 12.2731C68.6322 11.9122 69.5015 11.7288 70.4321 11.7288L70.4198 11.7349ZM73.3156 17.3797C73.1074 16.6458 72.7401 16.0526 72.2075 15.5939C71.6749 15.1291 71.081 14.8967 70.4198 14.8967C69.7586 14.8967 69.1036 15.1291 68.5465 15.5939C67.9893 16.0526 67.6098 16.6519 67.4077 17.3797H73.3217H73.3156Z"
                  fill="#666666"></path>
        </g>
        <g clip-path="url(#clip6_201_261)">
            <path d="M85.4757 12.0874C85.9594 12.0874 86.492 12.1608 87.0736 12.2953C87.6613 12.4299 88.2062 12.6867 88.7205 13.0598C89.2347 13.439 89.6694 13.9588 90.0184 14.6254C90.3673 15.292 90.5449 16.1605 90.5449 17.2124V24.8264H86.9695V17.353C86.9695 16.9616 86.9022 16.6253 86.7798 16.3501C86.6512 16.0748 86.4798 15.8608 86.2655 15.7018C86.0573 15.5367 85.8125 15.4143 85.537 15.341C85.2615 15.2676 84.986 15.2248 84.7166 15.2248C84.4901 15.2248 84.2452 15.2676 83.9819 15.341C83.7187 15.4143 83.4677 15.5428 83.235 15.714C83.0024 15.8853 82.8126 16.1115 82.6596 16.3806C82.5065 16.6558 82.4269 16.98 82.4269 17.353V24.8264H78.8761V12.0874H81.9065L82.4208 13.0598C82.8249 12.7663 83.284 12.5339 83.7983 12.3504C84.3125 12.173 84.8697 12.0813 85.4696 12.0813L85.4757 12.0874Z"
                  fill="#666666"></path>
        </g>
        <g clip-path="url(#clip7_201_261)">
            <path d="M96.8596 20.2646C96.8596 20.8639 97.0433 21.3287 97.4045 21.6529C97.7718 21.977 98.2616 22.1421 98.8677 22.1421C99.3452 22.1421 99.8227 22.0443 100.3 21.8547V24.833C99.8717 24.9737 99.4125 25.0838 98.935 25.1755C98.4575 25.2672 97.9738 25.3162 97.5024 25.3162C96.9514 25.3162 96.431 25.2428 95.9352 25.1082C95.4393 24.9737 94.9924 24.7413 94.5944 24.411C94.1965 24.0747 93.8842 23.6282 93.6577 23.0717C93.4251 22.5213 93.3149 21.8241 93.3149 20.9985V15.2436H91.4844V12.8524L93.3088 12.0879V9.23186H96.8596V12.0879H100.3V15.2436H96.8596V20.2585V20.2646Z"
                  fill="#666666"></path>
        </g>
        <g clip-path="url(#clip8_201_261)">
            <path d="M116.197 11.8104C115.612 11.7351 115.16 11.7351 114.5 11.7351H110.463V24.7273H112.085V19.4136H114.5C115.16 19.4136 115.612 19.4136 116.197 19.3382C118.084 19.0932 119.574 17.7742 119.574 15.5696C119.574 13.365 118.272 12.0648 116.197 11.801V11.8104ZM116.103 17.9721C115.745 18.0475 115.235 18.0663 114.65 18.0663H112.085V13.0918H114.65C115.235 13.0918 115.745 13.1106 116.103 13.186C117.027 13.3932 117.838 14.0716 117.838 15.579C117.838 17.0865 117.027 17.7648 116.103 17.9721Z"
                  fill="#666666"></path>
        </g>
        <g clip-path="url(#clip9_201_261)">
            <path d="M135.402 23.4083H128.367V11.7256H126.744V24.7273H135.402V23.4083Z" fill="#666666"></path>
        </g>
        <g clip-path="url(#clip10_201_261)">
            <path d="M152.251 11.7098H150.629V19.7557C150.629 20.1703 150.629 20.566 150.591 20.9051C150.44 22.5445 149.365 23.6939 147.365 23.6939C145.366 23.6939 144.291 22.5445 144.14 20.9051C144.102 20.566 144.102 20.1703 144.102 19.7557V11.7098H142.48V19.9065C142.48 20.321 142.48 20.6979 142.518 21.0747C142.706 23.2417 144.178 24.9752 147.365 24.9752C150.553 24.9752 152.025 23.2417 152.213 21.0747C152.251 20.6979 152.251 20.321 152.251 19.9065V11.7098Z"
                  fill="#666666"></path>
        </g>
        <g clip-path="url(#clip11_201_261)">
            <path d="M166.096 18.4367V19.7557H169.133C169.133 22.0734 167.567 23.6939 165.455 23.6939C162.889 23.6939 161.267 21.3951 161.267 18.1917C161.267 14.9884 162.908 12.7273 165.568 12.7273C167.737 12.7273 168.888 13.9898 169.265 15.8552L169.303 16.0436H170.925L170.906 15.8552C170.642 13.3114 168.907 11.446 165.606 11.446C161.909 11.446 159.456 14.3101 159.456 18.2671C159.456 22.2241 161.569 24.9752 165.36 24.9752C166.851 24.9752 168.001 24.4853 168.737 23.6562L169.322 22.4503V24.7114H170.755V18.4367H166.096Z"
                  fill="#666666"></path>
        </g>
        <g clip-path="url(#clip12_201_261)">
            <path d="M180.438 24.7273V11.7256H178.816V24.7273H180.438Z" fill="#666666"></path>
        </g>
        <g clip-path="url(#clip13_201_261)">
            <path d="M199.029 24.7273L198.991 11.7256H197.406V18.2265C197.406 19.7527 197.425 21.6182 197.463 23.1445L191.333 11.7256H188.843V24.7273H190.465V18.2265C190.465 16.7002 190.446 14.8347 190.408 13.3085L196.539 24.7273H199.029Z"
                  fill="#666666"></path>
        </g>
        <g clip-path="url(#clip14_201_261)">
            <path d="M211.406 11.446C209.011 11.446 207.068 12.8592 207.068 15.1015C207.068 17.3438 208.671 18.1729 210.973 18.7005C213.255 19.2281 214.16 19.9441 214.16 21.527C214.16 22.8836 212.953 23.6939 211.463 23.6939C209.765 23.6939 208.577 22.7329 208.2 21.0182H206.464C206.747 23.5243 208.558 24.9752 211.425 24.9752C213.934 24.9752 215.896 23.5055 215.896 21.2255C215.896 18.9455 214.462 17.8526 211.595 17.1931C209.614 16.7408 208.803 16.1379 208.803 14.7246C208.803 13.3114 209.897 12.7273 211.274 12.7273C212.915 12.7273 213.877 13.6694 214.028 15.3088H215.764C215.519 13.0853 214.104 11.446 211.406 11.446Z"
                  fill="#666666"></path>
        </g>
        <path d="M225.096 10V22.4959C225.096 26.4298 228.306 30 232.244 30H260.852C264.79 30 268 26.4298 268 22.4959V10H225.096ZM230.821 15.719H237.969V17.1405H230.821V15.719ZM245.117 21.438H230.821V18.5785H245.117V21.438Z"
              fill="#5271FF"></path>
        <path d="M260.852 0H232.244C228.306 0 225.096 2.8595 225.096 7.1405H268C268 2.8595 264.79 0 260.852 0Z"
              fill="#5271FF"></path>
    </g>
    <defs>
        <clipPath id="clip0_201_261">
            <rect width="268" height="30" fill="white"></rect>
        </clipPath>
        <clipPath id="clip1_201_261">
            <rect width="13.0952" height="18.2126" fill="white" transform="matrix(1 0 0 -1 0 24.8264)"></rect>
        </clipPath>
        <clipPath id="clip2_201_261">
            <rect width="13.6768" height="13.4056" fill="white" transform="matrix(1 0 0 -1 13.6342 25.1405)"></rect>
        </clipPath>
        <clipPath id="clip3_201_261">
            <rect width="14.1666" height="17.8212" fill="white" transform="matrix(1 0 0 -1 28.5754 29.9835)"></rect>
        </clipPath>
        <clipPath id="clip4_201_261">
            <rect width="18.6908" height="12.739" fill="white" transform="matrix(1 0 0 -1 43.6822 24.8264)"></rect>
        </clipPath>
        <clipPath id="clip5_201_261">
            <rect width="13.0952" height="13.4056" fill="white" transform="matrix(1 0 0 -1 63.7528 25.1405)"></rect>
        </clipPath>
        <clipPath id="clip6_201_261">
            <rect width="11.6688" height="12.739" fill="white" transform="matrix(1 0 0 -1 78.8761 24.8264)"></rect>
        </clipPath>
        <clipPath id="clip7_201_261">
            <rect width="8.82198" height="16.0843" fill="white" transform="matrix(1 0 0 -1 91.4844 25.3223)"></rect>
        </clipPath>
        <clipPath id="clip8_201_261">
            <rect width="9.11071" height="13.0017" fill="white" transform="matrix(1 0 0 -1 110.463 24.7273)"></rect>
        </clipPath>
        <clipPath id="clip9_201_261">
            <rect width="8.658" height="13.0017" fill="white" transform="matrix(1 0 0 -1 126.744 24.7273)"></rect>
        </clipPath>
        <clipPath id="clip10_201_261">
            <rect width="9.77091" height="13.2655" fill="white" transform="matrix(1 0 0 -1 142.48 24.9752)"></rect>
        </clipPath>
        <clipPath id="clip11_201_261">
            <rect width="11.4686" height="13.5293" fill="white" transform="matrix(1 0 0 -1 159.456 24.9752)"></rect>
        </clipPath>
        <clipPath id="clip12_201_261">
            <rect width="1.6222" height="13.0017" fill="white" transform="matrix(1 0 0 -1 178.816 24.7273)"></rect>
        </clipPath>
        <clipPath id="clip13_201_261">
            <rect width="10.1859" height="13.0017" fill="white" transform="matrix(1 0 0 -1 188.843 24.7273)"></rect>
        </clipPath>
        <clipPath id="clip14_201_261">
            <rect width="9.43138" height="13.5293" fill="white" transform="matrix(1 0 0 -1 206.464 24.9752)"></rect>
        </clipPath>
    </defs>
</svg>