<svg xmlns="http://www.w3.org/2000/svg" viewBox="0 0 20 20" width="20" height="20">
    <path fill="none" stroke="currentColor" stroke-width="1.5" stroke-linejoin="round" d="
    M11.8 1.2 L12.5 3.9 L15.2 2.6
    C 16.3 3.3 17.2 4.2 17.9 5.3
    L 16.5 7.9 L19 9.2
    C 19 9.5 19 9.7 19 10
    C 19 10.3 19 10.5 19 10.8
    L 16.5 12.1 L17.9 14.7
    C 17.2 15.8 16.3 16.7 15.2 17.4
    L 12.5 16.1 L11.8 18.8
    C 11.2 18.9 10.6 19 10 19
    C 9.4 19 8.8 18.9 8.2 18.8
    L 7.5 16.1 L4.8 17.4
    C 3.7 16.7 2.8 15.8 2.1 14.7
    L 3.5 12.1 L1 10.8
    C 1 10.5 1 10.3 1 10
    C 1 9.7 1 9.5 1 9.2
    L 3.5 7.9 L2.1 5.3
    C 2.8 4.2 3.7 3.3 4.8 2.6
    L 7.5 3.9 L8.2 1.2
    C 8.8 1.1 9.4 1 10 1
    C 10.6 1 11.2 1.1 11.8 1.2 Z
  "/>
    <circle cx="10" cy="10" r="3" fill="none" stroke="currentColor" stroke-width="1.5"/>
</svg>