<?xml version="1.0" encoding="UTF-8"?>
<svg version="1.1" viewBox="0 0 2048 1070" width="1408" height="736" xmlns="http://www.w3.org/2000/svg">
<path transform="translate(1280,358)" d="m0 0h299l41 1-2 13-16 59-14 53-13 49-19 73-5 20-2 2-6 1h-645l-2-1 2-10 13-47 20-76 22-80 10-38 4-16 3-2zm-30 43-11 1-13 24-13 23-14 26-13 23-14 26-9 16-2 1-1-22-1-47-3-70h-45l-12 23-15 29-13 25-12 22-13 25-10 17-2 1v-51l-2-50-1-40-1-1h-39l4 67 5 81 3 37h44l12-22 15-28 13-24 12-24 10-19 10-21 4-2v57l2 69 1 15h44l5-5 13-24 24-42 14-25 16-28 13-23 12-21 9-16v-2zm188 1-3 10-14 57-16 68-9 38-2 12 1 1h31l4-4 12-49 21-86 10-44-1-3zm67 0-16 64-23 93-5 22v7h22l12-1 4-13 30-120 11-47v-5zm-227 48-3 2-5 20v5l67 1 8 3 5 4 2 10-2 7-1 1-12 1h-33l-22 1-12 3-10 5-10 8-6 8-6 12-1 5v22l4 8 7 6 12 5h104l3-6 7-31 11-47 2-12v-15l-3-10-7-8-10-5-8-2-16-1z" fill="#2563eb"/>
<path transform="translate(1665,297)" d="m0 0h31l8 1-2 12-11 44-13 47-14 51-10 38-12 48-20 75-21 77-2 3h-747l6-7 12-13 8-10 2-2 55-1h639l4-17 21-80 18-67 13-49 11-43 14-54 5-20h-1196l-5 25-15 56-13 50-8 29-9 34-8 29-11 42-12 45-5 18-1 2 408-1 10-2 12-5 10-8 7-11 5-15 7-30h-45l-13-3-10-6-6-7-3-7-1-12 2-13 15-57 7-29 1-2 3-1h33l1 3-7 31-12 44-4 16 2 7 4 3 5 1 36 1 2-10 13-50 10-39 3-6 1-1h33l2 1-3 15-15 58-12 46-14 52-7 19-6 11-9 11-10 9-14 9-13 6-16 4-16 1h-438l1-8 8-30 17-66 24-90 22-83 18-66 13-51 1-1z" fill="#000000"/>
<path transform="translate(488,403)" d="m0 0h90l18 2 14 4 11 6 8 8 7 14 3 14v17l-3 20-6 22-8 20-9 15-8 10-12 12-14 9-15 7-16 4-8 1-26 1-74-1 1-7 23-87 11-42 11-43zm31 32-2 3-7 31-15 59-7 26v2h48l12-2 13-5 9-7 8-9 8-16 7-24 3-16v-23l-4-8-7-6-12-4-28-1z" fill="#000000"/>
<path transform="translate(667,451)" d="m0 0h64l12 2 10 6 4 7v13l-7 28-2 2h-29l-4-1 1-9 2-10v-7l-2-2-5-1h-13l-3 3-7 30-15 56-5 18-1 2h-36l4-18 11-42 16-62 3-13z" fill="#000000"/>
<path transform="translate(1301,529)" d="m0 0h40l1 2-5 28-3 3h-48l-8-3-4-5v-13l4-5 10-5z" fill="#2563eb"/>
<path transform="translate(1039,723)" d="m0 0 11 1 3 5v8l-3 6-5 1 3 4v9l-3 6-5 4-6 2h-39l1-8 7-25 3-11 1-1zm-23 9-2 9h24l3-5-1-4zm-5 18-1 1-1 9h25l3-5v-4l-2-1z" fill="#000000"/>
<path transform="translate(1103,723)" d="m0 0h35l5 4v8l-7 26-5 6-6 2h-38l-6-3-1-2v-7l6-22 4-8 5-3zm12 9-15 1-3 5-4 17v5h29l3-5 5-17v-5l-5-1z" fill="#000000"/>
<path transform="translate(844,723)" d="m0 0h40l4 3v13l-6 21-6 7-6 2h-38l-5-3-1-1v-8l5-21 4-9 5-3zm2 9-3 5-4 17v6h29l4-10 3-11v-6l-1-1z" fill="#000000"/>
<path transform="translate(753,723)" d="m0 0h39l4 2 1 2v11l-6 22-4 6-8 3h-37l-6-3-1-7 7-27 4-6zm3 9-4 6-4 17v5h29l4-9 4-14v-4l-2-1z" fill="#000000"/>
<path transform="translate(1183,723)" d="m0 0 6 2 8 12 4-2 10-9 5-3h11v3l-22 18h-2l13 18 4 6-2 1h-13l-6-7-5-8-7 4-9 8-7 3-9-1 4-5 11-9 9-7-1-4-10-16v-2z" fill="#000000"/>
<path transform="translate(675,723)" d="m0 0h40l2 1-2 8-1 1h-18l-4 17-4 16-3 3h-9l-2-1 4-17 5-18h-18l1-6 2-3z" fill="#000000"/>
<path transform="translate(928,723)" d="m0 0h11l-2 11-6 26 30-1 1 1v8l-1 1h-45l2-11 9-34z" fill="#000000"/>
<path transform="translate(1439,400)" d="m0 0h14l22 1-2 12-19 79-23 94-3 3h-35l1-9h1v7h31l3-3 12-49 21-86 10-44v-2l-34-1-1 5-1-4z" fill="#FEFEFE"/>
<path transform="translate(1110,401)" d="m0 0h47l1 10 3 81 1 44 2 4-4 2-1-23-1-47-2-43v-27h-45l-1 3-1-2z" fill="#FEFEFE"/>
<path transform="translate(991,401)" d="m0 0h40l1 1 3 83 1 36 1 19v3l-3 1-1-51-2-50-1-40-39-1z" fill="#FEFEFE"/>
</svg>
